<?xml version="1.0" encoding="utf-8" ?><svg xmlns="http://www.w3.org/2000/svg" xmlns:xlink="http://www.w3.org/1999/xlink" width="1024" height="1024" viewBox="0 0 1024 1024"><path fill="#FEFFFF" d="M0 0L1024 0L1024 1024L0 1024L0 0Z"/><defs><linearGradient id="gradient_0" gradientUnits="userSpaceOnUse" x1="932.91711" y1="213.43146" x2="376.65756" y2="731.95282"><stop offset="0" stop-color="#90E6B0"/><stop offset="1" stop-color="#43D7F8"/></linearGradient></defs><path fill="url(#gradient_0)" d="M690.352 146.434C701.387 146.188 712.484 146.032 723.522 146.101C793.863 146.541 864.415 145.355 934.741 146.271C932.334 151.403 929.474 155.662 926.763 160.535C910.663 189.47 893.65 217.924 877.211 246.643L817.393 350.762C808.296 366.5 798.871 384.125 789.279 399.355C785.389 407.86 779.241 415.754 775.003 424.055C771.785 430.358 768.218 436.005 764.672 442.102L711.686 533.777L635.054 666.964C629.231 676.891 623.604 687.03 617.727 696.923C614.365 702.581 610.354 710.915 606.662 715.99C605.444 718.978 598.808 729.506 596.795 733.085C584.733 754.529 572.2 775.818 559.887 797.128L529.457 850.017C525.756 856.549 515.911 874.802 512.081 879.929C503.106 866.396 492.36 846.114 484.002 831.611L430.937 739.682L354.945 607.913C345.821 591.882 334.305 573.446 325.812 557.362C314.086 537.765 302.456 516.722 291.06 496.86L230.154 391.525L181.859 307.863L163.387 275.58C159.87 269.483 155.998 263.483 152.782 257.25L113.239 188.663C105.485 175.243 95.9238 159.675 88.872 146.098L333.913 146.113C336.931 150.701 340.719 157.685 343.579 162.564C347.078 168.534 352.934 177.798 355.774 183.975C363.705 195.704 372.835 213.287 380.236 225.973C389.554 241.947 399.572 258.651 408.472 274.765L477.382 393.613C488.863 413.356 500.461 434.296 512.23 453.715C517.926 443.5 524.271 433.218 529.789 423.099C533.253 416.199 539.348 406.394 543.385 399.477L566.997 358.796L638.423 235.495L674.751 172.755C678.123 166.956 686.995 150.476 690.352 146.434Z"/><path fill="#447CFA" d="M88.872 146.098L333.913 146.113C336.931 150.701 340.719 157.685 343.579 162.564C347.078 168.534 352.934 177.798 355.774 183.975C363.705 195.704 372.835 213.287 380.236 225.973C389.554 241.947 399.572 258.651 408.472 274.765L403.488 275.348C407.982 276.061 409.296 278.243 411.373 281.835C427.607 310.441 444.041 338.934 460.673 367.312L487.967 414.024C492.81 422.369 497.729 430.839 502.428 439.279C503.278 440.806 503.384 442.138 503.398 443.846C503.421 446.725 503.787 448.442 504.5 451.164C504.511 448.804 504.551 447.293 504.25 444.926L505.075 444.514L505.015 444.519L505.473 445.067C507.885 447.989 509.129 449.762 510.308 453.416L510.564 454.189C511.736 457.821 458.659 548.884 453.009 557.329C451.935 558.935 445.757 568.3 444.136 570.136L443.426 570.028L442.367 568.182L441.827 568.09C440.049 563.188 406.105 505.259 404.693 504.553C405.506 507.095 414.367 521.717 416.19 525.063C424.865 540.991 433.704 556.52 442.8 572.205C433.477 590.584 418.334 614.816 407.791 632.972C404.08 639.311 400.418 645.678 396.806 652.073C394.901 655.464 391.648 661.739 389.539 664.495C388.396 664.203 387.816 662.945 387.135 661.756L346.426 591.344C343.239 585.86 329.17 559.675 325.812 557.362C314.086 537.765 302.456 516.722 291.06 496.86L230.154 391.525L181.859 307.863L163.387 275.58C159.87 269.483 155.998 263.483 152.782 257.25L113.239 188.663C105.485 175.243 95.9238 159.675 88.872 146.098Z"/><path fill="#51D1EB" d="M355.774 183.975C363.705 195.704 372.835 213.287 380.236 225.973C389.554 241.947 399.572 258.651 408.472 274.765L403.488 275.348C407.982 276.061 409.296 278.243 411.373 281.835C427.607 310.441 444.041 338.934 460.673 367.312L487.967 414.024C492.81 422.369 497.729 430.839 502.428 439.279C503.278 440.806 503.384 442.138 503.398 443.846C503.421 446.725 503.787 448.442 504.5 451.164C504.511 448.804 504.551 447.293 504.25 444.926L505.075 444.514L505.015 444.519L505.473 445.067C507.885 447.989 509.129 449.762 510.308 453.416L510.564 454.189C511.736 457.821 458.659 548.884 453.009 557.329C451.935 558.935 445.757 568.3 444.136 570.136L443.426 570.028L442.367 568.182L441.827 568.09C440.049 563.188 406.105 505.259 404.693 504.553C402.806 502.106 399.115 495.399 397.471 492.505L384.897 470.381L333.228 380.487C327.292 369.94 321.29 359.431 315.222 348.96C313.235 345.527 309.003 337.736 306.768 334.788C295.765 314.78 283.583 295.037 272.495 274.939C286.356 274.879 402.302 275.453 405.828 273.882C406.318 269.442 355.515 188.655 355.709 184.668C355.721 184.436 355.752 184.206 355.774 183.975Z"/><path fill="#43B1EA" d="M152.782 257.25L153.045 256.409C149.635 249.263 122.98 205.229 122.901 203.843L123.572 203.447C123.928 203.63 132.005 212.826 131.981 212.773C138.873 227.773 146.925 240.567 156.731 253.854C158.783 256.634 159.645 260.589 162.483 262.655C163.863 263.764 165.794 267.379 167.07 269.01C180.496 286.165 191.524 304.971 207.689 319.738C210.952 322.72 213.905 328.762 217.095 332.094C222.328 337.923 234.35 346.02 242.003 347.843C246.164 345.491 241.198 345.812 247.677 346.206C263.614 347.174 280.173 317.426 284.64 304.113C285.713 300.913 283.642 300.897 284.94 298.206C288.367 304.94 293.23 312.609 297.018 319.283C299.411 323.5 303.478 330.978 306.06 334.573L306.768 334.788C309.003 337.736 313.235 345.527 315.222 348.96C321.29 359.431 327.292 369.94 333.228 380.487L384.897 470.381L397.471 492.505C399.115 495.399 402.806 502.106 404.693 504.553C405.506 507.095 414.367 521.717 416.19 525.063C424.865 540.991 433.704 556.52 442.8 572.205C433.477 590.584 418.334 614.816 407.791 632.972C404.08 639.311 400.418 645.678 396.806 652.073C394.901 655.464 391.648 661.739 389.539 664.495C388.396 664.203 387.816 662.945 387.135 661.756L346.426 591.344C343.239 585.86 329.17 559.675 325.812 557.362C314.086 537.765 302.456 516.722 291.06 496.86L230.154 391.525L181.859 307.863L163.387 275.58C159.87 269.483 155.998 263.483 152.782 257.25Z"/><path fill="#6FDEE1" d="M621.644 275.697C620.332 275.636 619.345 275.745 618.252 275.062C620.381 274.06 636.53 275.409 641.575 275.004L710.496 275.028C723.096 275.026 738.811 274.625 751.267 275.191C742.316 291.169 733.192 306.986 723.86 322.742C708.14 349.282 693.32 376.623 677.438 403.047C673.718 410.652 668.139 419.541 663.864 426.963L639.04 470.2C614.74 512.992 590.178 555.633 565.356 598.123C548.223 627.01 527.656 658.776 512.203 688.246C512.144 688.201 442.839 571.386 441.827 568.09L442.367 568.182L443.426 570.028L444.136 570.136C445.757 568.3 451.935 558.935 453.009 557.329C458.659 548.884 511.736 457.821 510.564 454.189L510.308 453.416C509.129 449.762 507.885 447.989 505.473 445.067L505.015 444.519L505.075 444.514L504.25 444.926C504.551 447.293 504.511 448.804 504.5 451.164C503.787 448.442 503.421 446.725 503.398 443.846C503.384 442.138 503.278 440.806 502.428 439.279C497.729 430.839 492.81 422.369 487.967 414.024L460.673 367.312C444.041 338.934 427.607 310.441 411.373 281.835C409.296 278.243 407.982 276.061 403.488 275.348L408.472 274.765L477.382 393.613C488.863 413.356 500.461 434.296 512.23 453.715C517.926 443.5 524.271 433.218 529.789 423.099C532.721 421.282 551.575 387.42 554.473 382.422L597.012 308.91C601.337 301.34 605.901 293.665 610.191 286.109C614.874 277.86 614.499 281.552 621.598 276.722L621.644 275.697Z"/><path fill="#A2EFE2" d="M621.644 275.697C620.332 275.636 619.345 275.745 618.252 275.062C620.381 274.06 636.53 275.409 641.575 275.004L710.496 275.028C723.096 275.026 738.811 274.625 751.267 275.191C742.316 291.169 733.192 306.986 723.86 322.742C708.14 349.282 693.32 376.623 677.438 403.047C678.025 400.108 681.499 394.554 683.118 391.756C701.151 360.604 719.349 329.539 736.999 298.245C737.44 297.463 734.879 292.401 738.024 290.368C738.585 290.361 740.976 290.353 741.31 290.079C743.5 288.278 749.255 278.605 748.025 276.072L659.222 275.52C647.64 275.517 632.921 275.075 621.644 275.697Z"/><path fill="#9CF1CE" d="M690.352 146.434C701.387 146.188 712.484 146.032 723.522 146.101C793.863 146.541 864.415 145.355 934.741 146.271C932.334 151.403 929.474 155.662 926.763 160.535C910.663 189.47 893.65 217.924 877.211 246.643L817.393 350.762C808.296 366.5 798.871 384.125 789.279 399.355C784.784 401.903 753.642 461.613 747.861 469.532C746.183 471.83 743.429 478.312 741.172 480.609C740.964 472.681 752.362 456.057 756.299 448.776C763.068 436.259 768.312 422.552 776.298 410.766C776.985 409.753 777.407 407.33 778.088 406.204C781.566 400.174 783.953 393.69 787.129 387.523C789.529 382.745 793.502 378.302 795.792 374.222C797.718 369.736 798.554 364.111 800.815 359.806C805.292 351.284 812.208 345.282 814.719 335.786C816.383 329.494 820.272 322.228 824.314 317.183C827.08 313.731 827.982 310.382 829.765 306.367C832.92 299.397 838.839 287.717 844.801 282.935L844.588 281.647L844.575 282.553L844.415 282.152C847.095 276.758 847.518 272.113 851.914 267.281C852.391 266.756 852.94 263.79 853.325 263.195C857.438 256.844 859.655 249.659 862.823 242.848C864.264 239.721 866.961 236.889 868.515 233.954C871.23 228.828 873.697 223.433 876.276 218.227C878.839 213.107 880.125 205.016 882.496 200.085C886.754 191.229 894.064 187.6 893.829 176.233C893.956 173.343 893.245 169.491 890.775 167.505C876.432 155.971 856.426 163.175 839.589 160.561C839.27 160.257 838.952 159.952 838.633 159.648L837.809 160.701L837.426 160.256L835.295 160.342L834.785 160.87L834.014 159.891C826.177 159.498 819.275 159.592 811.488 159.471C807.052 159.402 803.039 158.434 797.98 158.482L780.802 158.586C779.279 158.61 773.522 159.557 772.565 159.265C763.617 156.81 759.583 158.362 749.991 158.058C735.341 157.594 707.695 157.071 695.139 164.025C691.321 166.14 679.845 183.833 675.225 187.908C673.397 189.521 669.133 203.487 667.706 206.256C665.015 212.081 662.089 214.068 659.115 219.031C657.244 223.217 654.32 228.084 652.811 232.355C650.541 238.783 646.315 242.983 642.927 248.809C641.912 250.271 640.046 251.546 639.286 253.173C635.734 260.777 633.662 267.3 628.764 274.205C632.676 274.215 638.012 273.91 641.575 275.004C636.53 275.409 620.381 274.06 618.252 275.062C619.345 275.745 620.332 275.636 621.644 275.697L621.598 276.722C614.499 281.552 614.874 277.86 610.191 286.109C605.901 293.665 601.337 301.34 597.012 308.91L554.473 382.422C551.575 387.42 532.721 421.282 529.789 423.099C533.253 416.199 539.348 406.394 543.385 399.477L566.997 358.796L638.423 235.495L674.751 172.755C678.123 166.956 686.995 150.476 690.352 146.434Z"/><path fill="#A2EFE2" d="M741.172 480.609C743.429 478.312 746.183 471.83 747.861 469.532C753.642 461.613 784.784 401.903 789.279 399.355C785.389 407.86 779.241 415.754 775.003 424.055C771.785 430.358 768.218 436.005 764.672 442.102L711.686 533.777L635.054 666.964C629.231 676.891 623.604 687.03 617.727 696.923C614.365 702.581 610.354 710.915 606.662 715.99C606.725 712.479 617.758 694.937 620.225 690.683L641.099 654.61C660.678 620.232 680.441 585.959 700.385 551.792C702.389 548.345 704.959 543.917 706.759 540.378C707.768 538.396 707.887 533.602 709.419 530.945C710.467 528.582 714.517 527.132 715.749 525.099C718.314 520.866 720.247 516.633 723.228 512.687C725.313 509.928 724.443 503.511 726.905 499.699C729.883 495.089 732.486 492.496 736.604 488.87C737.673 487.831 740.476 482.111 741.172 480.609Z"/></svg>